<svg width="14" height="15" viewBox="0 0 14 15" fill="none" xmlns="http://www.w3.org/2000/svg">
<path fill-rule="evenodd" clip-rule="evenodd" d="M7 1.36339C5.87037 1.36339 4.95457 2.27918 4.95457 3.40885H9.04546C9.04546 2.27918 8.12971 1.36339 7 1.36339ZM10.4091 3.40885C10.4091 1.52606 8.88284 -0.000244141 7 -0.000244141C5.11724 -0.000244141 3.59094 1.52606 3.59094 3.40885H2.29889C1.49212 3.40885 0.861743 4.10542 0.94202 4.90817L1.53872 10.8752L1.04002 13.3687C0.871254 14.2125 1.51665 14.9998 2.37717 14.9998H11.6229C12.4834 14.9998 13.1288 14.2125 12.96 13.3687L12.4614 10.8752L13.058 4.90817C13.1383 4.10542 12.5079 3.40885 11.7012 3.40885H10.4091ZM2.29889 4.77248L2.91589 10.9425L2.37717 13.6361H11.6229L11.0842 10.9425L11.7012 4.77248H2.29889ZM3.59094 10.9088C3.59094 10.5323 3.8962 10.227 4.27276 10.227H9.72727C10.1038 10.227 10.4091 10.5323 10.4091 10.9088C10.4091 11.2854 10.1038 11.5907 9.72727 11.5907H4.27276C3.8962 11.5907 3.59094 11.2854 3.59094 10.9088Z" fill="white"/>
</svg>
