<svg width="151" height="201" viewBox="0 0 151 201" fill="none" xmlns="http://www.w3.org/2000/svg">
<path d="M86.6307 72.2727H64.4423V73.6692H86.6307V72.2727Z" fill="black"/>
<path d="M86.6307 78.4829H64.4365V79.8794H86.6307V78.4829Z" fill="black"/>
<path d="M86.6288 84.6931H64.4288V86.0896H86.6288V84.6931Z" fill="black"/>
<path d="M86.6288 90.9033H64.423V92.2998H86.6288V90.9033Z" fill="black"/>
<path d="M86.6288 97.1135H64.4172V98.5101H86.6288V97.1135Z" fill="black"/>
<path d="M86.6288 103.324H64.4115V104.72H86.6288V103.324Z" fill="black"/>
<path d="M86.6288 109.534H64.4057V110.93H86.6288V109.534Z" fill="black"/>
<path d="M86.6307 115.744H64.3999V117.141H86.6307V115.744Z" fill="black"/>
<path d="M86.6307 121.954H64.3942V123.351H86.6307V121.954Z" fill="black"/>
<path d="M86.6307 128.165H64.3884V129.561H86.6307V128.165Z" fill="black"/>
<path d="M56.2134 65.2284C56.2134 69.8764 59.9946 73.6576 64.6426 73.6576V72.2611C60.7651 72.2611 57.6118 69.1059 57.6118 65.2303C57.6118 61.3528 60.7651 58.1995 64.6426 58.1995V56.803C59.9946 56.803 56.2134 60.5842 56.2134 65.2322V65.2284Z" fill="black"/>
<path d="M50.0032 65.2284C50.0032 73.2993 56.5697 79.8678 64.6426 79.8678V78.4713C57.3422 78.4713 51.4016 72.5308 51.4016 65.2303C51.4016 57.9298 57.3422 51.9893 64.6426 51.9893V50.5928C56.5717 50.5928 50.0032 57.1593 50.0032 65.2303V65.2284Z" fill="black"/>
<path d="M43.793 65.2284C43.793 76.7242 53.1468 86.078 64.6426 86.078V84.6815C53.9173 84.6815 45.1914 75.9556 45.1914 65.2303C45.1914 54.505 53.9173 45.7791 64.6426 45.7791V44.3826C53.1468 44.3826 43.793 53.7345 43.793 65.2303V65.2284Z" fill="black"/>
<path d="M37.5828 65.2284C37.5828 80.149 49.722 92.2863 64.6407 92.2863V90.8898C50.4905 90.8898 38.9793 79.3785 38.9793 65.2284C38.9793 51.0782 50.4905 39.5669 64.6407 39.5669V38.1704C49.72 38.1704 37.5828 50.3096 37.5828 65.2284Z" fill="black"/>
<path d="M31.3726 65.2284C31.3726 83.5739 46.2971 98.4985 64.6407 98.4985V97.1019C47.0657 97.1019 32.7691 82.8034 32.7691 65.2303C32.7691 47.6553 47.0676 33.3587 64.6407 33.3587V31.9622C46.2952 31.9622 31.3726 46.8867 31.3726 65.2303V65.2284Z" fill="black"/>
<path d="M25.1623 65.2284C25.1623 86.9969 42.8722 104.707 64.6407 104.707V103.31C43.6427 103.31 26.5588 86.2264 26.5588 65.2284C26.5588 44.2304 43.6427 27.1465 64.6407 27.1465V25.75C42.8722 25.75 25.1623 43.4599 25.1623 65.2284Z" fill="black"/>
<path d="M18.9521 65.2284C18.9521 90.4217 39.4473 110.917 64.6407 110.917V109.52C40.2178 109.52 20.3486 89.6512 20.3486 65.2284C20.3486 40.8055 40.2178 20.9363 64.6407 20.9363V19.5398C39.4473 19.5398 18.9521 40.035 18.9521 65.2284Z" fill="black"/>
<path d="M12.7419 65.2284C12.7419 93.8466 36.0244 117.127 64.6407 117.127V115.731C36.793 115.731 14.1384 93.0742 14.1384 65.2284C14.1384 37.3807 36.793 14.7261 64.6407 14.7261V13.3296C36.0225 13.3296 12.7419 36.6121 12.7419 65.2284Z" fill="black"/>
<path d="M6.53168 65.2284C6.53168 97.2695 32.5995 123.337 64.6407 123.337V121.941C33.37 121.941 7.9282 96.499 7.9282 65.2284C7.9282 33.9577 33.37 8.51591 64.6407 8.51591V7.11938C32.5995 7.11938 6.53168 33.1872 6.53168 65.2284Z" fill="black"/>
<path d="M0.321472 65.2284C0.321472 100.694 29.1747 129.548 64.6407 129.548V128.151C29.9452 128.151 1.718 99.9239 1.718 65.2284C1.718 30.5329 29.9452 2.30571 64.6407 2.30571V0.90918C29.1766 0.90918 0.321472 29.7624 0.321472 65.2284Z" fill="black"/>
<path d="M94.9578 136.59C94.9578 131.942 91.1766 128.161 86.5305 128.161V129.557C90.408 129.557 93.5613 132.712 93.5613 136.588C93.5613 140.465 90.408 143.619 86.5305 143.619V145.015C91.1785 145.015 94.9578 141.234 94.9578 136.586V136.59Z" fill="black"/>
<path d="M101.168 136.59C101.168 128.519 94.6015 121.952 86.5305 121.952V123.349C93.831 123.349 99.7715 129.289 99.7715 136.59C99.7715 143.892 93.831 149.831 86.5305 149.831V151.227C94.6015 151.227 101.168 144.661 101.168 136.588V136.59Z" fill="black"/>
<path d="M107.378 136.59C107.378 125.094 98.0263 115.742 86.5305 115.742V117.139C97.2558 117.139 105.982 125.865 105.982 136.59C105.982 147.315 97.2558 156.041 86.5305 156.041V157.438C98.0263 157.438 107.378 148.086 107.378 136.588V136.59Z" fill="black"/>
<path d="M113.588 136.59C113.588 121.669 101.449 109.532 86.5305 109.532V110.929C100.681 110.929 112.192 122.44 112.192 136.59C112.192 150.74 100.679 162.251 86.5305 162.251V163.648C101.451 163.648 113.588 151.509 113.588 136.59Z" fill="black"/>
<path d="M119.799 136.59C119.799 118.244 104.874 103.322 86.5305 103.322V104.718C104.106 104.718 118.402 119.017 118.402 136.59C118.402 154.165 104.104 168.462 86.5305 168.462V169.858C104.874 169.858 119.799 154.934 119.799 136.588V136.59Z" fill="black"/>
<path d="M126.009 136.59C126.009 114.821 108.299 97.1116 86.5305 97.1116V98.5081C107.529 98.5081 124.612 115.592 124.612 136.59C124.612 157.588 107.529 174.672 86.5305 174.672V176.068C108.299 176.068 126.009 158.358 126.009 136.59Z" fill="black"/>
<path d="M132.219 136.59C132.219 111.397 111.724 90.9014 86.5305 90.9014V92.2979C110.953 92.2979 130.823 112.167 130.823 136.59C130.823 161.013 110.953 180.882 86.5305 180.882V182.279C111.724 182.279 132.219 161.783 132.219 136.59Z" fill="black"/>
<path d="M138.427 136.59C138.427 107.972 115.145 84.6912 86.5286 84.6912V86.0877C114.376 86.0877 137.031 108.742 137.031 136.59C137.031 164.438 114.376 187.092 86.5286 187.092V188.489C115.147 188.489 138.427 165.206 138.427 136.59Z" fill="black"/>
<path d="M144.64 136.59C144.64 104.549 118.572 78.481 86.5305 78.481V79.8775C117.801 79.8775 143.243 105.319 143.243 136.59C143.243 167.861 117.801 193.302 86.5305 193.302V194.699C118.572 194.699 144.64 168.631 144.64 136.59Z" fill="black"/>
<path d="M150.848 136.59C150.848 101.124 121.995 72.2708 86.5286 72.2708V73.6673C121.224 73.6673 149.451 101.894 149.451 136.59C149.451 171.285 121.224 199.513 86.5286 199.513V200.909C121.995 200.909 150.848 172.056 150.848 136.59Z" fill="black"/>
<path d="M150.979 2.30571V0.90918H64.6407C60.0639 0.90918 55.6008 1.39267 51.2918 2.30571H150.977H150.979Z" fill="black"/>
<path d="M150.979 8.51591V7.11938H37.0857C36.1534 7.56435 35.2327 8.02857 34.3254 8.51591H150.979Z" fill="black"/>
<path d="M150.979 14.7261V13.3296H26.6956C26.0734 13.7861 25.459 14.2484 24.8541 14.7261H150.979Z" fill="black"/>
<path d="M18.0449 20.9363H150.979V19.5398H19.4183C18.954 19.9982 18.4956 20.4644 18.0468 20.9363H18.0449Z" fill="black"/>
<path d="M150.979 27.1465V25.75H13.8995C13.5413 26.2104 13.1888 26.6765 12.842 27.1465H150.979Z" fill="black"/>
<path d="M150.979 33.3567V31.9602H9.61175C9.33052 32.4225 9.05699 32.8887 8.78925 33.3567H150.979Z" fill="black"/>
<path d="M150.979 39.5669V38.1704H6.29861C6.08287 38.6327 5.87291 39.0989 5.66873 39.5669H150.979Z" fill="black"/>
<path d="M150.979 45.7771V44.3806H3.79256C3.63268 44.8429 3.4805 45.3091 3.33218 45.7771H150.981H150.979Z" fill="black"/>
<path d="M150.979 51.9873V50.5908H2.00308C1.89521 51.055 1.79312 51.5212 1.69489 51.9873H150.979Z" fill="black"/>
<path d="M150.979 58.1976V56.801H0.874306C0.812666 57.2653 0.758731 57.7314 0.708649 58.1976H150.979Z" fill="black"/>
<path d="M0.121155 199.513V200.909H86.5286C91.1054 200.909 95.5685 200.426 99.8775 199.513H0.121155Z" fill="black"/>
<path d="M0.121155 193.302V194.699H114.085C115.018 194.254 115.938 193.79 116.846 193.302H0.121155Z" fill="black"/>
<path d="M0.121155 187.092V188.489H124.476C125.098 188.032 125.712 187.57 126.317 187.092H0.121155Z" fill="black"/>
<path d="M133.126 180.882H0.121155V182.279H131.753C132.217 181.82 132.676 181.354 133.124 180.882H133.126Z" fill="black"/>
<path d="M0.121155 174.672V176.068H137.272C137.63 175.608 137.982 175.142 138.329 174.672H0.121155Z" fill="black"/>
<path d="M0.121155 168.462V169.858H141.558C141.837 169.396 142.112 168.93 142.38 168.462H0.121155Z" fill="black"/>
<path d="M0.121155 162.251V163.648H144.871C145.086 163.186 145.296 162.72 145.501 162.251H0.121155Z" fill="black"/>
<path d="M0.121155 156.041V157.438H147.379C147.539 156.975 147.691 156.509 147.839 156.041H0.121155Z" fill="black"/>
<path d="M0.121155 149.831V151.228H149.166C149.274 150.763 149.376 150.297 149.474 149.831H0.121155Z" fill="black"/>
<path d="M0.121155 143.621V145.017H150.297C150.359 144.553 150.412 144.087 150.463 143.621H0.121155Z" fill="black"/>
<path d="M151 0.90918H149.603V58.1976H151V0.90918Z" fill="black"/>
<path d="M1.51768 143.621H0.121155V200.909H1.51768V143.621Z" fill="black"/>
</svg>
