<svg width="80" height="33" viewBox="0 0 80 33" fill="none" xmlns="http://www.w3.org/2000/svg">
<g clip-path="url(#clip0_1_10097)">
<path fill-rule="evenodd" clip-rule="evenodd" d="M24.4276 22.725C23.7049 22.725 23.1576 22.7368 22.6109 22.7228C20.0883 22.6591 18.4083 20.9635 18.3971 18.4317C18.3799 14.4252 18.4143 10.4185 18.3685 6.41253C18.3553 5.2688 18.2484 4.10279 17.9923 2.99124C17.5926 1.25483 16.6184 0.580289 14.8187 0.544078C12.1621 0.490536 10.5341 1.80557 10.0204 4.42126C9.95939 4.73137 9.90198 5.04241 9.83235 5.40869C8.58478 5.40869 7.33705 5.40869 6.01025 5.40869C6.37994 3.71948 7.25333 2.37968 8.66849 1.58475C12.1379 -0.36475 15.7557 -0.613427 19.2821 1.38745C21.4326 2.60824 22.5172 4.61871 22.5237 7.13242C22.5346 11.3118 22.527 15.4912 22.5268 19.6705C22.5265 21.5302 22.7071 21.8389 24.4276 22.725Z" fill="white"/>
<path fill-rule="evenodd" clip-rule="evenodd" d="M72.2531 22.7205C71.6553 22.7205 71.056 22.748 70.4602 22.7157C68.0918 22.5866 66.4803 20.9443 66.4643 18.5743C66.4362 14.5062 66.4755 10.4374 66.438 6.3693C66.4281 5.27942 66.3268 4.17469 66.1186 3.10601C65.7656 1.29408 64.8898 0.617059 63.0649 0.548197C60.1582 0.438172 58.4457 1.85844 58.0042 4.74508C57.9743 4.94207 57.9407 5.1386 57.8983 5.39827C56.6308 5.39827 55.3767 5.39827 54.0522 5.39827C54.4724 3.61079 55.4504 2.19687 57.041 1.37129C60.1163 -0.225382 63.3558 -0.473595 66.5471 0.95843C69.2047 2.15044 70.5696 4.33717 70.5826 7.28215C70.6016 11.4945 70.6089 15.7076 70.5744 19.92C70.5642 21.2183 70.9247 22.19 72.2531 22.7205Z" fill="white"/>
<path fill-rule="evenodd" clip-rule="evenodd" d="M24.6875 0.525504C25.3119 0.525504 25.9397 0.48326 26.5602 0.533088C28.8349 0.716927 30.4422 2.4326 30.4543 4.71543C30.4735 8.32087 30.4585 11.9263 30.4594 15.5316C30.4597 15.9641 30.4526 16.3979 30.4775 16.8292C30.6066 19.0758 31.8787 20.6537 33.8176 20.9873C36.0625 21.3736 38.0635 20.278 38.9078 18.1816C39.0898 17.731 39.2128 17.2564 39.3886 16.7128C39.3832 19.8772 36.6329 22.7524 33.3631 23.1003C30.0818 23.4497 27.1455 21.2654 26.5132 17.9571C26.3682 17.1992 26.3308 16.4112 26.3277 15.6365C26.3109 11.5122 26.3085 7.38744 26.329 3.26313C26.3351 2.01587 25.9775 1.04932 24.6875 0.525504Z" fill="white"/>
<path fill-rule="evenodd" clip-rule="evenodd" d="M40.6028 0.554199C41.9922 0.554199 43.2779 0.554199 44.6649 0.554199C44.6826 0.893868 44.7156 1.22487 44.7159 1.55618C44.7195 7.61189 44.7365 13.6679 44.7068 19.7237C44.6998 21.0926 45.0214 22.1692 46.4378 22.7628C45.5972 22.7193 44.747 22.7438 43.9193 22.6183C42.1152 22.3444 40.7971 20.9128 40.6534 19.0984C40.5829 18.2099 40.6049 17.3125 40.6045 16.4191C40.6006 11.4881 40.6029 6.55682 40.6029 1.62536C40.6028 1.28615 40.6028 0.947101 40.6028 0.554199Z" fill="white"/>
<path fill-rule="evenodd" clip-rule="evenodd" d="M17.0671 10.2186C13.7487 9.37834 11.0672 10.0626 9.41254 12.3403C7.83428 14.5131 7.81927 17.5827 9.37679 19.7143C11.2065 22.2188 14.19 22.8996 18.0211 21.8203C17.4188 22.0823 16.836 22.4094 16.211 22.5946C13.9222 23.272 11.6093 23.31 9.29416 22.7098C6.10885 21.884 4.24679 19.5768 4.1674 16.3684C4.08461 13.0226 5.8085 10.5673 8.95976 9.58369C10.986 8.95109 13.046 8.85886 15.1015 9.40295C15.7811 9.58292 16.4133 9.94146 17.0671 10.2186Z" fill="white"/>
<path fill-rule="evenodd" clip-rule="evenodd" d="M64.9071 10.1067C61.5118 9.4645 59.0131 10.1647 57.4641 12.3436C55.9252 14.5085 55.852 17.3629 57.2806 19.5C58.9952 22.0654 61.5086 22.7342 65.911 21.8998C65.3833 22.1294 64.8731 22.4176 64.3251 22.5793C61.858 23.3083 59.3711 23.3416 56.9072 22.5838C53.9573 21.6768 52.2974 19.4266 52.2321 16.3467C52.1639 13.1354 53.7168 10.759 56.6231 9.71194C58.7388 8.95028 60.9119 8.84242 63.0937 9.38434C63.7199 9.5394 64.3038 9.86127 64.9071 10.1067Z" fill="white"/>
<path fill-rule="evenodd" clip-rule="evenodd" d="M45.9595 6.74084C45.9912 2.41489 49.6398 -0.903649 53.0246 0.278616C52.7247 1.33971 52.4228 2.40731 52.0961 3.56126C50.8083 2.58713 49.4968 2.63494 48.2008 3.33765C46.918 4.03339 46.4643 5.33883 45.9595 6.74084Z" fill="white"/>
<path d="M3.74707 32.9166V32.6473C3.99451 32.5297 4.24845 32.4554 4.50842 32.4246V26.9187C4.38447 26.894 4.25774 26.8616 4.12775 26.8211C3.99776 26.7808 3.87071 26.7361 3.74707 26.6866V26.4173H4.73126C4.84871 26.4173 4.96183 26.4143 5.07015 26.4079C5.17832 26.4019 5.29144 26.3955 5.40905 26.3895C5.5265 26.3831 5.65355 26.3771 5.78973 26.3708C5.92575 26.3647 6.08065 26.3613 6.25397 26.3613C6.50156 26.3613 6.7538 26.3816 7.01068 26.4218C7.26741 26.4624 7.49953 26.5379 7.70704 26.6495C7.9144 26.7607 8.08307 26.9172 8.21306 27.1182C8.34304 27.3195 8.40804 27.5809 8.40804 27.9028C8.40804 28.0639 8.38328 28.2246 8.33376 28.3854C8.28424 28.5465 8.20841 28.6968 8.10628 28.8357C8.00415 28.975 7.87556 29.0974 7.72096 29.2026C7.56622 29.3079 7.38346 29.3852 7.17316 29.4348V29.4719C7.35886 29.5027 7.54301 29.5553 7.72561 29.6297C7.90806 29.704 8.07053 29.8048 8.21306 29.9313C8.35527 30.0582 8.47133 30.2145 8.56124 30.4004C8.65083 30.5859 8.69587 30.8087 8.69587 31.0686C8.69587 31.4028 8.62159 31.6908 8.47303 31.9321C8.32447 32.1736 8.13104 32.3718 7.89273 32.5266C7.65442 32.6813 7.38346 32.7943 7.08031 32.8653C6.77701 32.9364 6.47062 32.972 6.16112 32.972C5.94448 32.972 5.69997 32.9625 5.42762 32.9441C5.15511 32.9254 4.8922 32.9162 4.63841 32.9162H3.74707V32.9166ZM5.8083 29.3698C5.91352 29.3698 6.03887 29.365 6.18433 29.3558C6.32964 29.3464 6.44895 29.3356 6.54179 29.3232C6.82637 29.2243 7.0602 29.0648 7.2428 28.845C7.42525 28.6253 7.5167 28.3668 7.5167 28.0697C7.5167 27.661 7.39429 27.3546 7.14995 27.1507C6.90529 26.9464 6.57894 26.8443 6.17041 26.8443C5.97852 26.8443 5.81448 26.8474 5.67831 26.8537C5.54213 26.8598 5.43056 26.8692 5.34406 26.8816V29.3699L5.8083 29.3698ZM6.22611 32.4894C6.44895 32.4894 6.65786 32.4553 6.85284 32.3873C7.04782 32.3194 7.21494 32.2247 7.35421 32.1041C7.49349 31.9833 7.60336 31.8378 7.68383 31.6677C7.76414 31.4975 7.80453 31.3135 7.80453 31.1153C7.80453 30.8677 7.75655 30.6619 7.66061 30.4979C7.56451 30.334 7.43469 30.2042 7.27065 30.1079C7.10662 30.0121 6.91783 29.9453 6.70428 29.9081C6.49073 29.8713 6.26929 29.8526 6.04042 29.8526H5.34406V32.4153C5.43071 32.4401 5.5344 32.4585 5.6551 32.4709C5.7758 32.4831 5.96614 32.4894 6.22611 32.4894Z" fill="white"/>
<path d="M20.4503 26.4172C20.444 26.6648 20.4331 26.9138 20.4178 27.1647C20.4022 27.4152 20.3791 27.6676 20.3482 27.9212H20.1068L19.7261 26.8999H17.702V29.3604H19.2154L19.5775 28.6734H19.8097C19.8468 29.2861 19.8468 29.9114 19.8097 30.5488H19.5775L19.2154 29.843H17.702V32.4335H19.8375L20.2925 31.3195H20.5246C20.5678 31.5794 20.5989 31.8427 20.6174 32.1087C20.636 32.375 20.6391 32.6442 20.6267 32.9166H16.0493V32.6473C16.2658 32.5485 16.5196 32.4742 16.8107 32.4247V26.9188C16.6867 26.894 16.56 26.8617 16.43 26.8211C16.3 26.7809 16.173 26.7362 16.0493 26.6866V26.4174H20.4503V26.4172Z" fill="white"/>
<path d="M29.8371 32.9164H27.7759V32.6472C27.9987 32.5483 28.2216 32.474 28.4444 32.4245L30.7934 26.3057H31.0627L33.4118 32.4245C33.5356 32.4493 33.6578 32.4771 33.7785 32.5079C33.8992 32.539 34.012 32.5853 34.1174 32.6472V32.9164H31.7219V32.6472C31.8457 32.5977 31.9726 32.5543 32.1026 32.5172C32.2326 32.4801 32.3593 32.4493 32.4833 32.4243L31.8552 30.7252H29.648L29.0386 32.4243C29.2986 32.4612 29.5646 32.5356 29.8371 32.647V32.9164ZM29.8328 30.2421H31.6982L30.9686 28.2739L30.7933 27.4754H30.7749L30.544 28.2923L29.8328 30.2421Z" fill="white"/>
<path d="M40.8018 26.4171H43.1601V26.6855C43.0425 26.7347 42.9247 26.778 42.8073 26.8152C42.6897 26.852 42.5719 26.8862 42.4545 26.9167V30.7025C42.4545 31.0295 42.49 31.3028 42.5612 31.5219C42.6323 31.7407 42.7359 31.917 42.8723 32.0493C43.0083 32.1819 43.1771 32.2779 43.3783 32.3364C43.5793 32.395 43.8069 32.4243 44.0607 32.4243C44.5496 32.4243 44.9302 32.2901 45.2028 32.0216C45.4751 31.7533 45.6113 31.3104 45.6113 30.6933V26.9999C45.4688 26.9507 45.3358 26.9 45.212 26.8473C45.0881 26.795 44.9767 26.7409 44.8778 26.6853V26.417H46.8555V26.6863C46.7377 26.7542 46.6187 26.8162 46.498 26.8718C46.3773 26.9273 46.255 26.971 46.1312 27.0018V30.7251C46.1312 31.1214 46.0786 31.4617 45.9734 31.7465C45.868 32.0312 45.7212 32.2663 45.5324 32.4523C45.3434 32.6378 45.1145 32.7757 44.8453 32.8654C44.576 32.9549 44.2774 32.9999 43.9493 32.9999C43.1756 32.9999 42.5844 32.8252 42.1759 32.4755C41.7674 32.1258 41.5631 31.5888 41.5631 30.8646V26.9185C41.3092 26.8814 41.0555 26.804 40.8018 26.6864V26.4171Z" fill="white"/>
<path d="M57.7185 32.9164H55.1095V32.6472C55.2455 32.5977 55.3834 32.5543 55.5227 32.5172C55.662 32.4801 55.8119 32.4493 55.973 32.4243V26.8997H54.5524L54.0603 28.2275H53.8282C53.8096 28.1038 53.7942 27.963 53.7818 27.805C53.7693 27.6472 53.7586 27.4864 53.7493 27.3223C53.74 27.1585 53.7321 26.9974 53.7261 26.8397C53.7197 26.6817 53.7168 26.541 53.7168 26.4172H59.1113C59.1113 26.5412 59.108 26.6802 59.1018 26.8349C59.0956 26.9896 59.0877 27.1492 59.0783 27.3131C59.0689 27.4773 59.0594 27.638 59.0501 27.796C59.0407 27.9539 59.0266 28.0976 59.0079 28.2276H58.7637L58.2755 26.8999H56.8642V32.4245C57.0251 32.4553 57.1752 32.4864 57.3145 32.5173C57.4538 32.5485 57.5884 32.5916 57.7184 32.6473L57.7185 32.9164Z" fill="white"/>
<path d="M69.8166 26.4172H71.8593V26.6865C71.6239 26.8041 71.3887 26.8815 71.1536 26.9186L69.3988 30.1496V32.4245C69.6402 32.4553 69.8754 32.5297 70.1045 32.6472V32.9164H67.7461V32.6472C67.969 32.5356 68.2227 32.4613 68.5075 32.4245V30.1589L66.632 26.9186C66.4896 26.8939 66.358 26.8615 66.2373 26.821C66.1166 26.7807 65.9973 26.736 65.8799 26.6865V26.4172H68.3404V26.6865C68.2475 26.7236 68.1421 26.7623 68.0247 26.8026C67.9071 26.8428 67.774 26.8815 67.6254 26.9186L69.1481 29.6482L70.578 26.9186C70.4356 26.8875 70.3008 26.8521 70.1741 26.8117C70.0472 26.7715 69.9281 26.7298 69.8166 26.6865V26.4172Z" fill="white"/>
</g>
<defs>
<clipPath id="clip0_1_10097">
<rect width="79.02" height="32.999" fill="white" transform="translate(0.490234 0.000244141)"/>
</clipPath>
</defs>
</svg>
