<svg width="21" height="21" viewBox="0 0 21 21" fill="none" xmlns="http://www.w3.org/2000/svg">
<path d="M18.2342 5.01111C18.0526 4.5448 17.8358 4.21088 17.4867 3.86173C17.1364 3.51141 16.8036 3.29465 16.3361 3.11422C15.9834 2.97714 15.4539 2.81428 14.4791 2.76975C13.4246 2.72172 13.1082 2.71117 10.438 2.71117C7.76787 2.71117 7.45152 2.72172 6.39704 2.76975C5.42223 2.81428 4.89265 2.97714 4.53998 3.11422C4.07367 3.29582 3.73975 3.51258 3.3906 3.86173C3.04028 4.21205 2.82352 4.5448 2.64309 5.01111C2.506 5.36378 2.34315 5.89336 2.29862 6.86817C2.25059 7.92265 2.24004 8.239 2.24004 10.9092C2.24004 13.5794 2.25059 13.8957 2.29862 14.9502C2.34315 15.925 2.506 16.4546 2.64309 16.8072C2.82469 17.2736 3.04145 17.6075 3.3906 17.9566C3.74092 18.307 4.07367 18.5225 4.53998 18.7041C4.89265 18.8412 5.42223 19.0041 6.39704 19.0486C7.45152 19.0966 7.76787 19.1072 10.438 19.1072C13.1082 19.1072 13.4246 19.0966 14.4791 19.0486C15.4539 19.0041 15.9834 18.8412 16.3361 18.7041C16.8036 18.5225 17.1364 18.3058 17.4867 17.9566C17.8358 17.6063 18.0526 17.2736 18.2342 16.8072C18.3713 16.4546 18.5341 15.925 18.5786 14.9502C18.6267 13.8957 18.6372 13.5794 18.6372 10.9092C18.6372 8.239 18.6267 7.92265 18.5786 6.86817C18.5341 5.89336 18.3713 5.36378 18.2342 5.01111ZM10.4392 16.0445C7.60267 16.0445 5.3039 13.7457 5.3039 10.9092C5.3039 8.07262 7.60267 5.77385 10.4392 5.77385C13.2758 5.77385 15.5745 8.07262 15.5745 10.9092C15.5745 13.7457 13.2758 16.0445 10.4392 16.0445ZM15.7772 6.77093C15.1141 6.77093 14.5775 6.23314 14.5775 5.57116C14.5775 4.90918 15.1153 4.37139 15.7772 4.37139C16.4392 4.37139 16.977 4.90801 16.977 5.57116C16.977 6.23431 16.4392 6.77093 15.7772 6.77093ZM10.4392 7.57585C8.59857 7.57585 7.10589 9.06852 7.10589 10.9092C7.10589 12.7498 8.59857 14.2425 10.4392 14.2425C12.2799 14.2425 13.7726 12.7498 13.7726 10.9092C13.7726 9.06852 12.2799 7.57585 10.4392 7.57585ZM20.3795 15.0322C20.3303 16.0961 20.1615 16.8236 19.9143 17.4599C19.6589 18.1171 19.3168 18.6749 18.7603 19.2314C18.2037 19.7867 17.6472 20.1289 16.9887 20.3843C16.3525 20.6315 15.6261 20.8002 14.5611 20.8494C13.4949 20.8975 13.1539 20.9092 10.438 20.9092C7.72217 20.9092 7.3824 20.8975 6.31503 20.8494C5.25117 20.8002 4.52358 20.6315 3.88738 20.3843C3.23008 20.1289 2.67238 19.7867 2.11585 19.2314C1.55931 18.6749 1.21837 18.1171 0.962947 17.4599C0.715729 16.8236 0.547012 16.0972 0.497803 15.0322C0.449766 13.966 0.438049 13.6251 0.438049 10.9092C0.438049 8.1933 0.449766 7.85236 0.497803 6.78616C0.545841 5.7223 0.715729 4.99471 0.962947 4.35851C1.21837 3.70121 1.56049 3.14351 2.11585 2.58698C2.67238 2.03162 3.22891 1.6895 3.88738 1.43408C4.52358 1.18686 5.25 1.01814 6.31503 0.968934C7.38122 0.919725 7.72217 0.90918 10.438 0.90918C13.1539 0.90918 13.4949 0.920896 14.5611 0.968934C15.6249 1.01697 16.3525 1.18686 16.9887 1.43408C17.646 1.6895 18.2037 2.03162 18.7603 2.58698C19.3156 3.14351 19.6577 3.70121 19.9143 4.35851C20.1615 4.99471 20.3303 5.72113 20.3795 6.78616C20.4287 7.85236 20.4392 8.1933 20.4392 10.9092C20.4392 13.6251 20.4275 13.966 20.3795 15.0322Z" fill="black"/>
</svg>
