<svg width="21" height="21" viewBox="0 0 21 21" fill="none" xmlns="http://www.w3.org/2000/svg">
<path d="M5.24661 7.57324H0.916504V20.9093H5.24661V7.57324Z" fill="black"/>
<path d="M3.08197 0.90918C1.68569 0.90918 0.77366 1.90999 0.801909 3.24305C0.77366 4.51693 1.68434 5.54733 3.05238 5.54733C4.42042 5.54733 5.38894 4.51693 5.38894 3.24305C5.36069 1.90999 4.47826 0.90918 3.08197 0.90918Z" fill="black"/>
<path d="M16.0147 7.25977C14.1287 7.25977 12.8333 8.1543 12.111 8.96275V7.57319H7.78088V20.9092H12.111V13.4704C12.111 13.0709 12.1675 12.6445 12.2818 12.3876C12.567 11.5899 13.2786 10.7639 14.4758 10.7639C16.0429 10.7639 16.6698 11.9894 16.6698 13.7838V20.9092H20.9999V13.2431C20.9999 9.14031 18.8637 7.26111 16.0147 7.26111V7.25977Z" fill="black"/>
</svg>
