<svg width="14" height="15" viewBox="0 0 14 15" fill="none" xmlns="http://www.w3.org/2000/svg">
<path d="M12.6249 14.9998C12.1071 14.9998 11.6875 14.5801 11.6875 14.0623V12.8904C11.6875 11.4689 10.3054 10.3121 8.60696 10.3121H5.39309C3.69433 10.3121 2.31254 11.4686 2.31254 12.8904V14.0623C2.31254 14.5801 1.89292 14.9998 1.37513 14.9998C0.857348 14.9998 0.437439 14.5801 0.437439 14.0623V12.8904C0.437439 11.677 0.969005 10.5436 1.93454 9.699C2.86436 8.88534 4.09259 8.43731 5.39309 8.43731H8.60696C9.90747 8.43731 11.1357 8.88534 12.0655 9.699C13.031 10.5436 13.5626 11.677 13.5626 12.8904V14.0623C13.5626 14.5801 13.143 14.9998 12.6252 14.9998H12.6249ZM6.99989 7.49961C4.93212 7.49961 3.24996 5.81745 3.24996 3.74969C3.24996 1.68192 4.93212 -0.000244141 6.99989 -0.000244141C9.06765 -0.000244141 10.7498 1.68192 10.7498 3.74969C10.7498 5.81745 9.06765 7.49961 6.99989 7.49961ZM6.99989 1.87458C5.966 1.87458 5.12478 2.7158 5.12478 3.74969C5.12478 4.78357 5.966 5.62479 6.99989 5.62479C8.03377 5.62479 8.87499 4.78357 8.87499 3.74969C8.87499 2.7158 8.03377 1.87458 6.99989 1.87458Z" fill="white"/>
</svg>
