<svg width="16" height="15" viewBox="0 0 16 15" fill="none" xmlns="http://www.w3.org/2000/svg">
<path fill-rule="evenodd" clip-rule="evenodd" d="M2.37644 6.5673C2.37644 5.32314 2.87068 4.12994 3.75043 3.25019C4.63019 2.37044 5.82339 1.8762 7.06754 1.8762C8.3117 1.8762 9.5049 2.37044 10.3847 3.25019C11.2644 4.12994 11.7586 5.32314 11.7586 6.5673C11.7586 7.81146 11.2644 9.00466 10.3847 9.88441C9.5049 10.7642 8.3117 11.2584 7.06754 11.2584C5.82339 11.2584 4.63019 10.7642 3.75043 9.88441C2.87068 9.00466 2.37644 7.81146 2.37644 6.5673ZM7.06754 -0.000244141C6.0269 -0.000244141 5.00116 0.247045 4.07484 0.721244C3.14852 1.19544 2.34815 1.88298 1.73968 2.72719C1.1312 3.5714 0.732051 4.54812 0.575114 5.57686C0.418177 6.6056 0.507946 7.6569 0.837026 8.64414C1.1661 9.63138 1.72507 10.5263 2.46787 11.2551C3.21066 11.9839 4.11601 12.5258 5.10932 12.8361C6.10262 13.1464 7.15544 13.2162 8.18102 13.0398C9.20659 12.8633 10.1756 12.4457 11.0081 11.8213C11.0347 11.8568 11.0639 11.8904 11.0953 11.9217L13.91 14.7364C14.0869 14.9073 14.3239 15.0019 14.5699 14.9997C14.8159 14.9976 15.0512 14.8989 15.2252 14.725C15.3992 14.551 15.4978 14.3157 15.5 14.0697C15.5021 13.8237 15.4075 13.5867 15.2366 13.4097L12.422 10.5951C12.3906 10.5637 12.3571 10.5345 12.3216 10.5078C13.0534 9.53209 13.499 8.37185 13.6086 7.1571C13.7181 5.94236 13.4872 4.72111 12.9417 3.6302C12.3963 2.5393 11.5578 1.62183 10.5203 0.980613C9.48279 0.339394 8.28722 -0.000244141 7.06754 -0.000244141Z" fill="white"/>
</svg>
