<svg width="18" height="21" viewBox="0 0 18 21" fill="none" xmlns="http://www.w3.org/2000/svg">
<path d="M15.3785 4.97635C14.2467 4.2712 13.4316 3.10591 13.1926 1.74221C13.1699 1.61194 13.1519 1.48047 13.14 1.349V0.90918H9.6955V14.5819C9.68952 16.1763 8.39515 17.4659 6.79959 17.4659C6.33109 17.4659 5.88887 17.3547 5.49686 17.1575C4.55148 16.6807 3.90369 15.7018 3.90369 14.5724C3.90369 12.9744 5.20045 11.6777 6.79959 11.6777C7.10556 11.6777 7.40196 11.7255 7.67924 11.8127V8.31327C7.3912 8.27383 7.10078 8.25351 6.81035 8.25351C3.31328 8.2547 0.478333 11.0885 0.478333 14.5819C0.478333 16.7727 1.59223 18.7029 3.2846 19.8383C4.29212 20.5148 5.50522 20.908 6.80916 20.908C10.305 20.908 13.14 18.0754 13.14 14.5807V7.59497C14.4857 8.55589 16.1339 9.1212 17.9135 9.1212V5.69823C17.0171 5.69943 16.1399 5.44844 15.3785 4.97515V4.97635Z" fill="black"/>
</svg>
