<svg width="16" height="21" viewBox="0 0 16 21" fill="none" xmlns="http://www.w3.org/2000/svg">
<path d="M3.41329 1.82041C4.42188 1.02741 6.36118 0.80026 7.15921 0.955041C7.95774 1.10882 8.37485 1.55557 8.37987 2.09932L8.4261 9.03485C8.42962 9.5796 8.14669 10.0801 7.79693 10.1475C7.44565 10.2133 6.92804 9.88966 6.6436 9.42632L3.00473 3.47929C2.7223 3.01545 2.15343 2.81091 3.41279 1.81991L3.41329 1.82041ZM2.20519 15.0085L5.86869 13.712C6.37927 13.5305 6.83658 13.027 6.88784 12.5893C6.93759 12.1516 6.56621 11.6325 6.06317 11.433L2.19313 9.8982C1.68908 9.6992 1.10815 10.1711 0.954875 10.944C0.954875 10.944 0.86291 13.6346 0.954875 14.1919C1.04784 14.7482 1.69461 15.1899 2.20569 15.008L2.20519 15.0085ZM8.59546 15.6563C8.60601 15.11 8.31454 14.6386 7.94719 14.6055C7.57983 14.5713 6.99689 14.8849 6.64863 15.3005L4.09322 18.365C3.74547 18.7816 3.91834 19.7595 4.4254 19.9449L7.09739 20.8731C7.60596 21.0581 8.50199 20.5103 8.51254 19.966L8.59546 15.6568V15.6563ZM14.948 14.9427L11.7434 14.0215C11.2237 13.8723 10.6343 13.8863 10.4342 14.0552C10.2342 14.2225 10.284 14.7502 10.5453 15.2271L12.5675 18.9283C12.8288 19.4047 13.8751 19.3233 14.1631 18.8605C14.1631 18.8605 15.3822 17.0619 15.6064 16.388C15.8305 15.7121 15.4667 15.0914 14.9475 14.9417L14.948 14.9427ZM15.7285 9.7384C15.5843 9.27003 14.5822 7.88956 14.0395 7.41919C13.4972 6.9478 12.8771 7.0066 12.5278 7.42069L10.4624 9.88112C10.1126 10.2952 10.0191 10.9515 10.2523 11.3375C10.485 11.7234 11.1071 11.9425 11.6348 11.8239L15.2068 11.1616C15.8516 11.0068 15.8742 10.2068 15.7275 9.7384H15.7285Z" fill="black"/>
</svg>
