<svg width="28" height="21" viewBox="0 0 28 21" fill="none" xmlns="http://www.w3.org/2000/svg">
<path d="M1.86079 16.6766C0.982683 12.5327 0.982683 8.2507 1.86079 4.10673C1.97617 3.6859 2.19909 3.30235 2.50764 2.9938C2.8162 2.68525 3.19975 2.46232 3.62058 2.34694C10.3624 1.23006 17.242 1.23006 23.9838 2.34694C24.4047 2.46232 24.7882 2.68525 25.0968 2.9938C25.4053 3.30235 25.6283 3.6859 25.7436 4.10673C26.6217 8.2507 26.6217 12.5327 25.7436 16.6766C25.6283 17.0975 25.4053 17.481 25.0968 17.7896C24.7882 18.0981 24.4047 18.3211 23.9838 18.4364C17.2421 19.5536 10.3624 19.5536 3.62058 18.4364C3.19975 18.3211 2.8162 18.0981 2.50764 17.7896C2.19909 17.481 1.97617 17.0975 1.86079 16.6766Z" stroke="black" stroke-width="2" stroke-linecap="round" stroke-linejoin="round"/>
<path d="M11.2837 14.1596L17.5686 10.3887L11.2837 6.61768V14.1596Z" stroke="black" stroke-width="2" stroke-linecap="round" stroke-linejoin="round"/>
</svg>
